# xmcd
#
# Track frame offsets:
#	150
#	21519
#	49653
#	69766
#	97158
#
# Disc length: 1604 seconds
#
# Revision: 1
# Processed by: cddbd v1.5.1PL0 Copyright (c) Steve Scherf et al.
# Submitted via: audiograbber 1.83.01
#
DISCID=3d064205
DTITLE=[ma] - Life-size
DYEAR=2003
DGENRE=JPop
TTITLE0=innocence
TTITLE1=always
TTITLE2=今日も明日も
TTITLE3=Replay
TTITLE4=おやすみのうた
EXTD=
EXTT0=
EXTT1=
EXTT2=
EXTT3=
EXTT4=
PLAYORDER=
